# xmcd
#
# Track frame offsets:
#	150
#	15568
#	33836
#	45629
#	60098
#	77742
#	95579
#	115923
#	131099
#	152826
#	166215
#	181782
#	199589
#	215571
#
# Disc length: 3016 seconds
#
# Revision: 0
# Processed by: cddbd v1.5.1PL0 Copyright (c) Steve Scherf et al.
# Submitted via: audiograbber 1.83.01
#
DISCID=ac0bc60e
DTITLE=Yoakam, Dwight - Last Chance For A Thousands Years - Dwight Yoakam's Gre
DTITLE=atest Hits From The 90's - Yoakam, Dwight - Last Chance For A Thousands 
DTITLE=Years - Dwight Yoakam's Greatest Hits From The 90's
DYEAR=1999
DGENRE=Country
TTITLE0=Turn It On, Turn It Up, Turn Me Loose
TTITLE1=You're The One
TTITLE2=It Only Hurts When I Cry
TTITLE3=The Heart That You Own
TTITLE4=Suspicious Minds
TTITLE5=Thinking About Leaving
TTITLE6=A Thousands Miles From Nowhere
TTITLE7=Ain't That Lonely Yet
TTITLE8=Fast As You
TTITLE9=Pocket Of A Clown
TTITLE10=Sorry You Asked?
TTITLE11=Nothing
TTITLE12=I'll Go  Back To Her
TTITLE13=Crazy Little Thing Called Love
EXTD=
EXTT0=
EXTT1=
EXTT2=
EXTT3=
EXTT4=
EXTT5=
EXTT6=
EXTT7=
EXTT8=
EXTT9=
EXTT10=
EXTT11=
EXTT12=
EXTT13=
PLAYORDER=
